<?xml version="1.0" encoding="UTF-8" standalone="no"?>
<!DOCTYPE svg PUBLIC "-//W3C//DTD SVG 1.1//EN"
 "http://www.w3.org/Graphics/SVG/1.1/DTD/svg11.dtd">
<!-- Generated by graphviz version 2.43.0 (0)
 -->
<!-- Title: GVmap Pages: 1 -->
<svg width="1027pt" height="207pt"
 viewBox="0.00 0.00 1026.50 207.00" xmlns="http://www.w3.org/2000/svg" xmlns:xlink="http://www.w3.org/1999/xlink">
<g id="graph0" class="graph" transform="scale(1 1) rotate(0) translate(4 203)">
<title>GVmap</title>
<polygon fill="white" stroke="transparent" points="-4,4 -4,-203 1022.5,-203 1022.5,4 -4,4"/>
<text text-anchor="middle" x="509.25" y="-7.8" font-family="Times,serif" font-size="14.00">adqlgeom data model</text>
<!-- adqlgeom:Point -->
<g id="node1" class="node">
<title>adqlgeom:Point</title>
<g id="a_node1"><a xlink:href="../adqlgeom/Point" xlink:title="{&amp;lt;&amp;lt;datatype&amp;gt;&amp;gt;\nPoint|+alpha : ivoa:real\l+delta : ivoa:real\l}">
<polygon fill="#8dd3c7" stroke="black" points="0,-137.5 0,-189.5 86,-189.5 86,-137.5 0,-137.5"/>
<text text-anchor="middle" x="43" y="-179.1" font-family="Times,serif" font-size="8.00">&lt;&lt;datatype&gt;&gt;</text>
<text text-anchor="middle" x="43" y="-170.1" font-family="Times,serif" font-size="8.00">Point</text>
<polyline fill="none" stroke="black" points="0,-163.5 86,-163.5 "/>
<text text-anchor="start" x="8" y="-153.1" font-family="Times,serif" font-size="8.00">+alpha : ivoa:real</text>
<text text-anchor="start" x="8" y="-144.1" font-family="Times,serif" font-size="8.00">+delta : ivoa:real</text>
</a>
</g>
</g>
<!-- adqlgeom:Line -->
<g id="node2" class="node">
<title>adqlgeom:Line</title>
<g id="a_node2"><a xlink:href="../adqlgeom/Line" xlink:title="{&amp;lt;&amp;lt;datatype&amp;gt;&amp;gt;\nLine|+begin : adqlgeom:Point\l+end : adqlgeom:Point\l}">
<polygon fill="#8dd3c7" stroke="black" points="104,-137.5 104,-189.5 220,-189.5 220,-137.5 104,-137.5"/>
<text text-anchor="middle" x="162" y="-179.1" font-family="Times,serif" font-size="8.00">&lt;&lt;datatype&gt;&gt;</text>
<text text-anchor="middle" x="162" y="-170.1" font-family="Times,serif" font-size="8.00">Line</text>
<polyline fill="none" stroke="black" points="104,-163.5 220,-163.5 "/>
<text text-anchor="start" x="112" y="-153.1" font-family="Times,serif" font-size="8.00">+begin : adqlgeom:Point</text>
<text text-anchor="start" x="112" y="-144.1" font-family="Times,serif" font-size="8.00">+end : adqlgeom:Point</text>
</a>
</g>
</g>
<!-- adqlgeom:Shape -->
<g id="node3" class="node">
<title>adqlgeom:Shape</title>
<g id="a_node3"><a xlink:href="../adqlgeom/Shape" xlink:title="{&amp;lt;&amp;lt;datatype&amp;gt;&amp;gt;\nShape}">
<polygon fill="#8dd3c7" stroke="black" points="464,-55.5 464,-91.5 542,-91.5 542,-55.5 464,-55.5"/>
<text text-anchor="middle" x="503" y="-76.1" font-family="Times,serif" font-size="8.00">&lt;&lt;datatype&gt;&gt;</text>
<text text-anchor="middle" x="503" y="-67.1" font-family="Times,serif" font-size="8.00">Shape</text>
</a>
</g>
</g>
<!-- adqlgeom:Circle -->
<g id="node4" class="node">
<title>adqlgeom:Circle</title>
<g id="a_node4"><a xlink:href="../adqlgeom/Circle" xlink:title="{&amp;lt;&amp;lt;datatype&amp;gt;&amp;gt;\nCircle|+center : adqlgeom:Point\l+radius : ivoa:real\l}">
<polygon fill="#8dd3c7" stroke="black" points="238.5,-137.5 238.5,-189.5 357.5,-189.5 357.5,-137.5 238.5,-137.5"/>
<text text-anchor="middle" x="298" y="-179.1" font-family="Times,serif" font-size="8.00">&lt;&lt;datatype&gt;&gt;</text>
<text text-anchor="middle" x="298" y="-170.1" font-family="Times,serif" font-size="8.00">Circle</text>
<polyline fill="none" stroke="black" points="238.5,-163.5 357.5,-163.5 "/>
<text text-anchor="start" x="246.5" y="-153.1" font-family="Times,serif" font-size="8.00">+center : adqlgeom:Point</text>
<text text-anchor="start" x="246.5" y="-144.1" font-family="Times,serif" font-size="8.00">+radius : ivoa:real</text>
</a>
</g>
</g>
<!-- adqlgeom:Circle&#45;&gt;adqlgeom:Shape -->
<g id="edge1" class="edge">
<title>adqlgeom:Circle&#45;&gt;adqlgeom:Shape</title>
<path fill="none" stroke="red" d="M346.75,-137.46C353.5,-134.18 360.39,-130.94 367,-128 395.56,-115.27 428.15,-102.4 454.26,-92.47"/>
<polygon fill="none" stroke="red" points="455.81,-95.62 463.93,-88.81 453.34,-89.08 455.81,-95.62"/>
</g>
<!-- adqlgeom:Ellipse -->
<g id="node5" class="node">
<title>adqlgeom:Ellipse</title>
<g id="a_node5"><a xlink:href="../adqlgeom/Ellipse" xlink:title="{&amp;lt;&amp;lt;datatype&amp;gt;&amp;gt;\nEllipse|+major_axis : ivoa:real\l+minor_axis : ivoa:real\l+center : adqlgeom:Point\l+pos_angle : ivoa:real\l}">
<polygon fill="#8dd3c7" stroke="black" points="375.5,-128.5 375.5,-198.5 494.5,-198.5 494.5,-128.5 375.5,-128.5"/>
<text text-anchor="middle" x="435" y="-188.1" font-family="Times,serif" font-size="8.00">&lt;&lt;datatype&gt;&gt;</text>
<text text-anchor="middle" x="435" y="-179.1" font-family="Times,serif" font-size="8.00">Ellipse</text>
<polyline fill="none" stroke="black" points="375.5,-172.5 494.5,-172.5 "/>
<text text-anchor="start" x="383.5" y="-162.1" font-family="Times,serif" font-size="8.00">+major_axis : ivoa:real</text>
<text text-anchor="start" x="383.5" y="-153.1" font-family="Times,serif" font-size="8.00">+minor_axis : ivoa:real</text>
<text text-anchor="start" x="383.5" y="-144.1" font-family="Times,serif" font-size="8.00">+center : adqlgeom:Point</text>
<text text-anchor="start" x="383.5" y="-135.1" font-family="Times,serif" font-size="8.00">+pos_angle : ivoa:real</text>
</a>
</g>
</g>
<!-- adqlgeom:Ellipse&#45;&gt;adqlgeom:Shape -->
<g id="edge2" class="edge">
<title>adqlgeom:Ellipse&#45;&gt;adqlgeom:Shape</title>
<path fill="none" stroke="red" d="M461.29,-128.48C468.65,-118.95 476.53,-108.76 483.43,-99.83"/>
<polygon fill="none" stroke="red" points="486.35,-101.77 489.7,-91.72 480.81,-97.49 486.35,-101.77"/>
</g>
<!-- adqlgeom:MultiShape -->
<g id="node6" class="node">
<title>adqlgeom:MultiShape</title>
<g id="a_node6"><a xlink:href="../adqlgeom/MultiShape" xlink:title="{&amp;lt;&amp;lt;datatype&amp;gt;&amp;gt;\nMultiShape|+shapes : adqlgeom:Shape\l}">
<polygon fill="#8dd3c7" stroke="black" points="786.5,-142 786.5,-185 911.5,-185 911.5,-142 786.5,-142"/>
<text text-anchor="middle" x="849" y="-174.6" font-family="Times,serif" font-size="8.00">&lt;&lt;datatype&gt;&gt;</text>
<text text-anchor="middle" x="849" y="-165.6" font-family="Times,serif" font-size="8.00">MultiShape</text>
<polyline fill="none" stroke="black" points="786.5,-159 911.5,-159 "/>
<text text-anchor="start" x="794.5" y="-148.6" font-family="Times,serif" font-size="8.00">+shapes : adqlgeom:Shape</text>
</a>
</g>
</g>
<!-- adqlgeom:Polygon -->
<g id="node7" class="node">
<title>adqlgeom:Polygon</title>
<g id="a_node7"><a xlink:href="../adqlgeom/Polygon" xlink:title="{&amp;lt;&amp;lt;datatype&amp;gt;&amp;gt;\nPolygon|+points : adqlgeom:Point\l}">
<polygon fill="#8dd3c7" stroke="black" points="512.5,-142 512.5,-185 629.5,-185 629.5,-142 512.5,-142"/>
<text text-anchor="middle" x="571" y="-174.6" font-family="Times,serif" font-size="8.00">&lt;&lt;datatype&gt;&gt;</text>
<text text-anchor="middle" x="571" y="-165.6" font-family="Times,serif" font-size="8.00">Polygon</text>
<polyline fill="none" stroke="black" points="512.5,-159 629.5,-159 "/>
<text text-anchor="start" x="520.5" y="-148.6" font-family="Times,serif" font-size="8.00">+points : adqlgeom:Point</text>
</a>
</g>
</g>
<!-- adqlgeom:Polygon&#45;&gt;adqlgeom:Shape -->
<g id="edge3" class="edge">
<title>adqlgeom:Polygon&#45;&gt;adqlgeom:Shape</title>
<path fill="none" stroke="red" d="M554.88,-141.65C545.22,-129.14 532.86,-113.14 522.63,-99.9"/>
<polygon fill="none" stroke="red" points="525.14,-97.43 516.26,-91.66 519.6,-101.71 525.14,-97.43"/>
</g>
<!-- adqlgeom:Box -->
<g id="node8" class="node">
<title>adqlgeom:Box</title>
<g id="a_node8"><a xlink:href="../adqlgeom/Box" xlink:title="{&amp;lt;&amp;lt;datatype&amp;gt;&amp;gt;\nBox|+pos_sw : adqlgeom:Point\l+pos_ne : adqlgeom:Point\l}">
<polygon fill="#8dd3c7" stroke="black" points="647.5,-137.5 647.5,-189.5 768.5,-189.5 768.5,-137.5 647.5,-137.5"/>
<text text-anchor="middle" x="708" y="-179.1" font-family="Times,serif" font-size="8.00">&lt;&lt;datatype&gt;&gt;</text>
<text text-anchor="middle" x="708" y="-170.1" font-family="Times,serif" font-size="8.00">Box</text>
<polyline fill="none" stroke="black" points="647.5,-163.5 768.5,-163.5 "/>
<text text-anchor="start" x="655.5" y="-153.1" font-family="Times,serif" font-size="8.00">+pos_sw : adqlgeom:Point</text>
<text text-anchor="start" x="655.5" y="-144.1" font-family="Times,serif" font-size="8.00">+pos_ne : adqlgeom:Point</text>
</a>
</g>
</g>
<!-- adqlgeom:Box&#45;&gt;adqlgeom:Shape -->
<g id="edge4" class="edge">
<title>adqlgeom:Box&#45;&gt;adqlgeom:Shape</title>
<path fill="none" stroke="red" d="M659.25,-137.46C652.5,-134.18 645.61,-130.94 639,-128 610.44,-115.27 577.85,-102.4 551.74,-92.47"/>
<polygon fill="none" stroke="red" points="552.66,-89.08 542.07,-88.81 550.19,-95.62 552.66,-89.08"/>
</g>
<!-- adqlgeom:Interval -->
<g id="node9" class="node">
<title>adqlgeom:Interval</title>
<g id="a_node9"><a xlink:href="../adqlgeom/Interval" xlink:title="{&amp;lt;&amp;lt;datatype&amp;gt;&amp;gt;\nInterval|+lower : ivoa:real\l+upper : ivoa:real\l}">
<polygon fill="#8dd3c7" stroke="black" points="929.5,-137.5 929.5,-189.5 1018.5,-189.5 1018.5,-137.5 929.5,-137.5"/>
<text text-anchor="middle" x="974" y="-179.1" font-family="Times,serif" font-size="8.00">&lt;&lt;datatype&gt;&gt;</text>
<text text-anchor="middle" x="974" y="-170.1" font-family="Times,serif" font-size="8.00">Interval</text>
<polyline fill="none" stroke="black" points="929.5,-163.5 1018.5,-163.5 "/>
<text text-anchor="start" x="937.5" y="-153.1" font-family="Times,serif" font-size="8.00">+lower : ivoa:real</text>
<text text-anchor="start" x="937.5" y="-144.1" font-family="Times,serif" font-size="8.00">+upper : ivoa:real</text>
</a>
</g>
</g>
</g>
</svg>
