<?xml version="1.0" encoding="UTF-8" standalone="no"?>
<!DOCTYPE svg PUBLIC "-//W3C//DTD SVG 1.1//EN"
 "http://www.w3.org/Graphics/SVG/1.1/DTD/svg11.dtd">
<!-- Generated by graphviz version 2.43.0 (0)
 -->
<!-- Title: GVmap Pages: 1 -->
<svg width="617pt" height="189pt"
 viewBox="0.00 0.00 616.50 189.00" xmlns="http://www.w3.org/2000/svg" xmlns:xlink="http://www.w3.org/1999/xlink">
<g id="graph0" class="graph" transform="scale(1 1) rotate(0) translate(4 185)">
<title>GVmap</title>
<polygon fill="white" stroke="transparent" points="-4,4 -4,-185 612.5,-185 612.5,4 -4,4"/>
<text text-anchor="middle" x="304.25" y="-7.8" font-family="Times,serif" font-size="14.00">adqlgeom data model</text>
<!-- adqlgeom:Point -->
<g id="node1" class="node">
<title>adqlgeom:Point</title>
<g id="a_node1"><a xlink:href="../adqlgeom/Point" xlink:title="{&amp;lt;&amp;lt;datatype&amp;gt;&amp;gt;\nPoint|+alpha : ivoa:real\l+delta : ivoa:real\l}">
<polygon fill="#8dd3c7" stroke="black" points="0,-128.5 0,-180.5 86,-180.5 86,-128.5 0,-128.5"/>
<text text-anchor="middle" x="43" y="-170.1" font-family="Times,serif" font-size="8.00">&lt;&lt;datatype&gt;&gt;</text>
<text text-anchor="middle" x="43" y="-161.1" font-family="Times,serif" font-size="8.00">Point</text>
<polyline fill="none" stroke="black" points="0,-154.5 86,-154.5 "/>
<text text-anchor="start" x="8" y="-144.1" font-family="Times,serif" font-size="8.00">+alpha : ivoa:real</text>
<text text-anchor="start" x="8" y="-135.1" font-family="Times,serif" font-size="8.00">+delta : ivoa:real</text>
</a>
</g>
</g>
<!-- adqlgeom:Shape -->
<g id="node2" class="node">
<title>adqlgeom:Shape</title>
<g id="a_node2"><a xlink:href="../adqlgeom/Shape" xlink:title="{&amp;lt;&amp;lt;datatype&amp;gt;&amp;gt;\nShape}">
<polygon fill="#8dd3c7" stroke="black" points="193,-55.5 193,-91.5 271,-91.5 271,-55.5 193,-55.5"/>
<text text-anchor="middle" x="232" y="-76.1" font-family="Times,serif" font-size="8.00">&lt;&lt;datatype&gt;&gt;</text>
<text text-anchor="middle" x="232" y="-67.1" font-family="Times,serif" font-size="8.00">Shape</text>
</a>
</g>
</g>
<!-- adqlgeom:Circle -->
<g id="node3" class="node">
<title>adqlgeom:Circle</title>
<g id="a_node3"><a xlink:href="../adqlgeom/Circle" xlink:title="{&amp;lt;&amp;lt;datatype&amp;gt;&amp;gt;\nCircle|+center : adqlgeom:Point\l+radius : ivoa:real\l}">
<polygon fill="#8dd3c7" stroke="black" points="104.5,-128.5 104.5,-180.5 223.5,-180.5 223.5,-128.5 104.5,-128.5"/>
<text text-anchor="middle" x="164" y="-170.1" font-family="Times,serif" font-size="8.00">&lt;&lt;datatype&gt;&gt;</text>
<text text-anchor="middle" x="164" y="-161.1" font-family="Times,serif" font-size="8.00">Circle</text>
<polyline fill="none" stroke="black" points="104.5,-154.5 223.5,-154.5 "/>
<text text-anchor="start" x="112.5" y="-144.1" font-family="Times,serif" font-size="8.00">+center : adqlgeom:Point</text>
<text text-anchor="start" x="112.5" y="-135.1" font-family="Times,serif" font-size="8.00">+radius : ivoa:real</text>
</a>
</g>
</g>
<!-- adqlgeom:Circle&#45;&gt;adqlgeom:Shape -->
<g id="edge1" class="edge">
<title>adqlgeom:Circle&#45;&gt;adqlgeom:Shape</title>
<path fill="none" stroke="red" d="M185.89,-128.07C193.82,-118.86 202.76,-108.48 210.64,-99.32"/>
<polygon fill="none" stroke="red" points="213.37,-101.51 217.24,-91.65 208.06,-96.94 213.37,-101.51"/>
</g>
<!-- adqlgeom:MultiShape -->
<g id="node4" class="node">
<title>adqlgeom:MultiShape</title>
<g id="a_node4"><a xlink:href="../adqlgeom/MultiShape" xlink:title="{&amp;lt;&amp;lt;datatype&amp;gt;&amp;gt;\nMultiShape|+shapes : adqlgeom:Shape\l}">
<polygon fill="#8dd3c7" stroke="black" points="376.5,-133 376.5,-176 501.5,-176 501.5,-133 376.5,-133"/>
<text text-anchor="middle" x="439" y="-165.6" font-family="Times,serif" font-size="8.00">&lt;&lt;datatype&gt;&gt;</text>
<text text-anchor="middle" x="439" y="-156.6" font-family="Times,serif" font-size="8.00">MultiShape</text>
<polyline fill="none" stroke="black" points="376.5,-150 501.5,-150 "/>
<text text-anchor="start" x="384.5" y="-139.6" font-family="Times,serif" font-size="8.00">+shapes : adqlgeom:Shape</text>
</a>
</g>
</g>
<!-- adqlgeom:Polygon -->
<g id="node5" class="node">
<title>adqlgeom:Polygon</title>
<g id="a_node5"><a xlink:href="../adqlgeom/Polygon" xlink:title="{&amp;lt;&amp;lt;datatype&amp;gt;&amp;gt;\nPolygon|+points : adqlgeom:Point\l}">
<polygon fill="#8dd3c7" stroke="black" points="241.5,-133 241.5,-176 358.5,-176 358.5,-133 241.5,-133"/>
<text text-anchor="middle" x="300" y="-165.6" font-family="Times,serif" font-size="8.00">&lt;&lt;datatype&gt;&gt;</text>
<text text-anchor="middle" x="300" y="-156.6" font-family="Times,serif" font-size="8.00">Polygon</text>
<polyline fill="none" stroke="black" points="241.5,-150 358.5,-150 "/>
<text text-anchor="start" x="249.5" y="-139.6" font-family="Times,serif" font-size="8.00">+points : adqlgeom:Point</text>
</a>
</g>
</g>
<!-- adqlgeom:Polygon&#45;&gt;adqlgeom:Shape -->
<g id="edge2" class="edge">
<title>adqlgeom:Polygon&#45;&gt;adqlgeom:Shape</title>
<path fill="none" stroke="red" d="M282.13,-132.74C273.35,-122.54 262.71,-110.17 253.48,-99.46"/>
<polygon fill="none" stroke="red" points="255.94,-96.95 246.77,-91.65 250.64,-101.52 255.94,-96.95"/>
</g>
<!-- adqlgeom:Interval -->
<g id="node6" class="node">
<title>adqlgeom:Interval</title>
<g id="a_node6"><a xlink:href="../adqlgeom/Interval" xlink:title="{&amp;lt;&amp;lt;datatype&amp;gt;&amp;gt;\nInterval|+lower : ivoa:real\l+upper : ivoa:real\l}">
<polygon fill="#8dd3c7" stroke="black" points="519.5,-128.5 519.5,-180.5 608.5,-180.5 608.5,-128.5 519.5,-128.5"/>
<text text-anchor="middle" x="564" y="-170.1" font-family="Times,serif" font-size="8.00">&lt;&lt;datatype&gt;&gt;</text>
<text text-anchor="middle" x="564" y="-161.1" font-family="Times,serif" font-size="8.00">Interval</text>
<polyline fill="none" stroke="black" points="519.5,-154.5 608.5,-154.5 "/>
<text text-anchor="start" x="527.5" y="-144.1" font-family="Times,serif" font-size="8.00">+lower : ivoa:real</text>
<text text-anchor="start" x="527.5" y="-135.1" font-family="Times,serif" font-size="8.00">+upper : ivoa:real</text>
</a>
</g>
</g>
</g>
</svg>
